Coordinates
version=1
nRows=30
nColumns=34
inDegrees=no

Units are S.I. units (second, meters, Newtons, ...)
If the header above contains a line with 'inDegrees', this indicates whether rotational values are in degrees (yes) or radians (no).

endheader
time	pelvis_tilt	pelvis_list	pelvis_rotation	pelvis_tx	pelvis_ty	pelvis_tz	hip_flexion_r	hip_adduction_r	hip_rotation_r	knee_angle_r	ankle_angle_r	subtalar_angle_r	mtp_angle_r	hip_flexion_l	hip_adduction_l	hip_rotation_l	knee_angle_l	ankle_angle_l	subtalar_angle_l	mtp_angle_l	lumbar_extension	lumbar_bending	lumbar_rotation	arm_flex_r	arm_add_r	arm_rot_r	elbow_flex_r	pro_sup_r	arm_flex_l	arm_add_l	arm_rot_l	elbow_flex_l	pro_sup_l
0.87	0.0120287	0.0328875	-0.0277804	0.961046	0.964906	-0.249795	0.458309	-0.120975	-0.0925466	0.858533	0.101885	-0.109844	0	-0.0116274	0.0978871	0.0735264	0.144716	0.241799	-0.0345789	0	-0.113782	-0.0362928	-0.0980879	-0.126957	-0.102129	-0.227034	0.502964	2.09	0.112205	-0.185161	-0.036336	0.702831	2.09
0.88	0.0103975	0.0289816	-0.0222106	0.972492	0.964775	-0.250464	0.468225	-0.114443	-0.101711	0.805016	0.118292	-0.0848585	0	-0.030482	0.0944311	0.0882096	0.131958	0.242196	-0.0487343	0	-0.113773	-0.0306882	-0.104402	-0.135732	-0.102398	-0.236571	0.494354	2.09	0.132829	-0.188298	-0.0197394	0.723901	2.09
0.89	0.00841103	0.02628	-0.0169429	0.983996	0.964315	-0.251014	0.476664	-0.10881	-0.109673	0.749129	0.131905	-0.0607463	0	-0.0482344	0.0917564	0.100336	0.12058	0.244384	-0.0591988	0	-0.113197	-0.0267622	-0.110257	-0.144906	-0.102362	-0.24592	0.487268	2.09	0.153137	-0.191856	-0.00386694	0.745022	2.09
0.9	0.00697306	0.0250225	-0.0116861	0.995642	0.963584	-0.251551	0.482556	-0.105712	-0.119127	0.691798	0.146136	-0.0310053	0	-0.069197	0.0914631	0.131173	0.104375	0.232681	-0.101584	0	-0.113072	-0.0245317	-0.115374	-0.155179	-0.101512	-0.25891	0.483292	2.09	0.173726	-0.195542	0.0123909	0.76542	2.09
0.91	0.00484411	0.0246644	-0.00682844	1.00735	0.962518	-0.251924	0.487624	-0.102471	-0.126248	0.633118	0.155088	-0.00616397	0	-0.0856733	0.0903644	0.138071	0.0955699	0.238916	-0.103544	0	-0.112034	-0.0237838	-0.120643	-0.16506	-0.101134	-0.26642	0.478816	2.09	0.193292	-0.199397	0.0260674	0.786197	2.09
0.92	0.0031046	0.0253812	-0.00198754	1.01919	0.961189	-0.252252	0.490712	-0.101013	-0.134869	0.574278	0.163358	0.0220495	0	-0.102834	0.0902925	0.146827	0.0866137	0.243982	-0.108459	0	-0.111362	-0.0243572	-0.125305	-0.175702	-0.100036	-0.276618	0.476698	2.09	0.212919	-0.203124	0.0394666	0.806236	2.09
0.93	0.0015808	0.0269382	0.00279656	1.03116	0.959607	-0.252518	0.492263	-0.100644	-0.144493	0.515901	0.170213	0.0513757	0	-0.120365	0.0909205	0.156749	0.0777318	0.248342	-0.115322	0	-0.110875	-0.0260359	-0.12963	-0.18662	-0.0985618	-0.287433	0.475938	2.09	0.23224	-0.20667	0.0520002	0.825787	2.09
0.94	0.000277214	0.0290716	0.0075725	1.04323	0.957798	-0.252712	0.492451	-0.100903	-0.155116	0.458603	0.176053	0.0811074	0	-0.138167	0.0919054	0.167337	0.069084	0.252348	-0.123288	0	-0.110628	-0.0285297	-0.133753	-0.197524	-0.0967916	-0.298454	0.476148	2.09	0.251143	-0.210028	0.0636615	0.844852	2.09
0.95	-0.000785274	0.0315424	0.0123846	1.05538	0.955798	-0.252828	0.491413	-0.101376	-0.166611	0.40299	0.181414	0.110594	0	-0.156113	0.0929544	0.178094	0.0608953	0.256295	-0.131551	0	-0.110687	-0.0315674	-0.137796	-0.208143	-0.0948066	-0.309325	0.476987	2.09	0.269527	-0.213204	0.0744911	0.863365	2.09
0.96	-0.00155037	0.0341525	0.0172498	1.06758	0.953644	-0.252861	0.489258	-0.101705	-0.178673	0.349716	0.186664	0.13896	0	-0.174116	0.0938438	0.18854	0.0534017	0.260405	-0.139342	0	-0.111142	-0.0349091	-0.141854	-0.218238	-0.0927198	-0.319613	0.478115	2.09	0.28727	-0.216176	0.0844525	0.881235	2.09
0.97	-0.00191697	0.0367418	0.0221489	1.07985	0.951381	-0.252813	0.486097	-0.101628	-0.190906	0.299589	0.191925	0.165103	0	-0.19213	0.0944187	0.198204	0.0468869	0.264862	-0.145912	0	-0.112106	-0.0383355	-0.145967	-0.227626	-0.0906674	-0.3289	0.47922	2.09	0.304214	-0.218854	0.0933777	0.898396	2.09
0.98	-0.0017541	0.0391732	0.0270323	1.09218	0.949049	-0.25269	0.482087	-0.100988	-0.20299	0.253631	0.197175	0.187916	0	-0.210169	0.0945717	0.206702	0.0416142	0.269771	-0.150647	0	-0.113703	-0.0416318	-0.150114	-0.236199	-0.0887861	-0.336882	0.480058	2.09	0.320168	-0.221072	0.100958	0.914845	2.09
0.99	-0.000944932	0.0413096	0.0318303	1.1046	0.94669	-0.252504	0.477433	-0.0997166	-0.214807	0.212976	0.202386	0.206597	0	-0.22822	0.0942175	0.213714	0.0378814	0.275195	-0.153053	0	-0.116019	-0.0445685	-0.154231	-0.243908	-0.0871947	-0.343434	0.480481	2.09	0.334915	-0.222617	0.10679	0.930644	2.09
1	0.000722567	0.0430614	0.0365232	1.11714	0.944339	-0.252285	0.47268	-0.0986805	-0.232197	0.179971	0.210051	0.229743	0	-0.246587	0.093342	0.220459	0.0355482	0.280032	-0.155226	0	-0.119286	-0.0468671	-0.157966	-0.251048	-0.0854894	-0.351413	0.48142	2.09	0.348556	-0.223159	0.111	0.945605	2.09
1.01	0.0027089	0.0441606	0.040814	1.12983	0.94201	-0.251979	0.467352	-0.0956544	-0.241081	0.152251	0.214099	0.236068	0	-0.263957	0.0917601	0.223131	0.0360071	0.286835	-0.151252	0	-0.122683	-0.0484532	-0.161972	-0.256738	-0.0851658	-0.352844	0.480058	2.09	0.359866	-0.222977	0.111946	0.96068	2.09
1.02	0.00541494	0.044494	0.0446359	1.14268	0.939744	-0.251617	0.461841	-0.0920516	-0.250465	0.132365	0.21836	0.240323	0	-0.280936	0.0894387	0.223227	0.0388745	0.294127	-0.143915	0	-0.126702	-0.0489225	-0.165339	-0.261764	-0.0849296	-0.355434	0.479052	2.09	0.369513	-0.2218	0.111068	0.975195	2.09
1.03	0.00844328	0.0439621	0.047742	1.15572	0.93755	-0.25118	0.456599	-0.0877465	-0.25914	0.120482	0.221935	0.24232	0	-0.296836	0.0864075	0.220039	0.0445615	0.301905	-0.132642	0	-0.130775	-0.0482123	-0.168098	-0.265915	-0.0851807	-0.357332	0.47774	2.09	0.377005	-0.219919	0.108411	0.989395	2.09
1.04	0.0115257	0.0424077	0.0498551	1.16894	0.935448	-0.250642	0.451839	-0.0825259	-0.265827	0.116292	0.223395	0.24194	0	-0.311161	0.0825982	0.212744	0.0533692	0.310151	-0.116686	0	-0.134519	-0.0461773	-0.170075	-0.269121	-0.0860065	-0.358352	0.475983	2.09	0.382071	-0.217612	0.104386	1.00331	2.09
1.05	0.0144483	0.0395936	0.0507604	1.18234	0.933465	-0.249961	0.44757	-0.0759505	-0.268764	0.11878	0.220506	0.237889	0	-0.322487	0.0776004	0.193508	0.0674818	0.323759	-0.0833964	0	-0.137653	-0.0426258	-0.171177	-0.271247	-0.0874626	-0.35824	0.47357	2.09	0.384471	-0.215125	0.0991696	1.01695	2.09
1.06	0.016744	0.0352978	0.0502948	1.19591	0.931599	-0.249079	0.443926	-0.0672193	-0.263805	0.126095	0.210047	0.224666	0	-0.329354	0.0706802	0.156811	0.0885527	0.344952	-0.0246905	0	-0.13961	-0.0374449	-0.171204	-0.272326	-0.0894654	-0.357137	0.470432	2.09	0.384115	-0.212596	0.0930294	1.03007	2.09
1.07	0.0185136	0.0294363	0.0484119	1.20967	0.929882	-0.248001	0.44096	-0.056331	-0.253243	0.137575	0.192067	0.205857	0	-0.334788	0.0621094	0.123327	0.11097	0.359071	0.025079	0	-0.140468	-0.0305355	-0.170107	-0.272436	-0.0920155	-0.355268	0.466732	2.09	0.380943	-0.209849	0.0856796	1.04251	2.09
1.08	0.0196193	0.0218191	0.0452551	1.22361	0.928332	-0.246677	0.438683	-0.0426995	-0.235824	0.151694	0.166097	0.178816	0	-0.336775	0.0507792	0.0810409	0.138307	0.373412	0.0859427	0	-0.140129	-0.0218183	-0.167992	-0.271564	-0.0949395	-0.352758	0.462495	2.09	0.375022	-0.20683	0.0768917	1.05404	2.09
1.09	0.0201673	0.01272	0.0410214	1.23774	0.926983	-0.245131	0.437609	-0.0272099	-0.217092	0.169099	0.136695	0.15156	0	-0.336562	0.0371217	0.0388893	0.16852	0.382305	0.144346	0	-0.138778	-0.0115844	-0.165008	-0.269813	-0.0980945	-0.349977	0.457962	2.09	0.366505	-0.203396	0.0666044	1.06441	2.09
1.1	0.0202111	0.00190044	0.0359167	1.25202	0.925858	-0.243328	0.437551	-0.00931228	-0.195614	0.188932	0.106114	0.120842	0	-0.33261	0.0191632	-0.014596	0.204804	0.390741	0.218521	0	-0.136581	0.000368188	-0.161045	-0.267445	-0.100985	-0.348874	0.453886	2.09	0.355779	-0.199505	0.0553059	1.07322	2.09
1.11	0.0205246	-0.0079434	0.0302037	1.26648	0.92509	-0.241533	0.439658	0.00537958	-0.187389	0.216112	0.0882459	0.113301	0	-0.331643	0.00574671	-0.0314693	0.23539	0.376334	0.236442	0	-0.134512	0.0113704	-0.15711	-0.263997	-0.104349	-0.345294	0.449038	2.09	0.342728	-0.195237	0.0426662	1.08056	2.09
1.12	0.0208268	-0.0183056	0.0240021	1.28106	0.924642	-0.239564	0.442265	0.0207629	-0.177546	0.245931	0.0768777	0.103493	0	-0.326849	-0.0107231	-0.059945	0.272741	0.361196	0.271705	0	-0.132353	0.0227757	-0.152565	-0.259975	-0.107224	-0.343102	0.444864	2.09	0.328014	-0.190744	0.0298191	1.08592	2.09
1.13	0.0215056	-0.0281167	0.0174126	1.29573	0.924571	-0.2375	0.444768	0.0353172	-0.168568	0.278389	0.0748445	0.0955189	0	-0.319816	-0.0278058	-0.0876207	0.314154	0.339297	0.305421	0	-0.130633	0.0334531	-0.147541	-0.255395	-0.109576	-0.341813	0.4415	2.09	0.31197	-0.186163	0.0171994	1.08907	2.09
1.14	0.0228209	-0.0366629	0.0105949	1.31045	0.924913	-0.235395	0.445998	0.0484295	-0.159975	0.311769	0.0812769	0.0886503	0	-0.310684	-0.0439479	-0.109563	0.35916	0.308683	0.329543	0	-0.129727	0.0426034	-0.142153	-0.250271	-0.111301	-0.341217	0.439198	2.09	0.294968	-0.18163	0.00514488	1.08981	2.09
1.15	0.0245064	-0.0441089	0.0037273	1.32513	0.925631	-0.233239	0.44512	0.060561	-0.151198	0.343583	0.0934864	0.0816202	0	-0.297889	-0.0603163	-0.129843	0.409738	0.2714	0.349421	0	-0.129385	0.0503093	-0.136436	-0.244702	-0.112372	-0.340904	0.438217	2.09	0.277317	-0.177231	-0.00613945	1.088	2.09
1.16	0.0265659	-0.0504594	-0.00285141	1.33972	0.926704	-0.231074	0.441122	0.0717133	-0.142519	0.371512	0.108978	0.0747178	0	-0.281006	-0.0763965	-0.145347	0.465826	0.226396	0.358954	0	-0.129698	0.0565859	-0.130514	-0.238782	-0.112773	-0.340789	0.438936	2.09	0.259482	-0.172969	-0.0164172	1.0834	2.09
